<svg xmlns="http://www.w3.org/2000/svg" width="512" height="512" fill="none"><path fill="#F9CE49" d="M49.987 49.987c66.65-66.65 345.376-66.65 412.026 0 66.649 66.653 66.649 345.376 0 412.026-66.65 66.649-345.376 66.649-412.026 0-66.65-66.65-66.65-345.376 0-412.026Z"/><path fill="#333" d="m358.144 259.456 40.704 131.2c.64 2.304 0 4.736-1.536 6.272-1.152 1.28-2.816 1.92-4.48 1.92-.64 0-1.28 0-1.92-.256l-131.2-40.704a5.697 5.697 0 0 1-2.688-1.536L106.88 206.336c-19.968-19.968-19.968-52.48 0-72.448l27.136-27.136c19.328-19.328 53.12-19.328 72.448 0l150.144 150.016c.64.768 1.28 1.664 1.536 2.688Z"/><path fill="#FEFBE8" d="m345.728 371.328-76.416-23.68 6.4-27.264 29.824-11.008c1.792-.64 3.2-2.048 3.84-3.712l11.008-29.824 27.264-6.4 23.808 76.16c-11.264 5.632-20.224 14.592-25.728 25.728Z"/><path fill="#F9CE49" d="m316.672 263.424 14.592-3.456-91.136-91.136a173.494 173.494 0 0 0-11.904 6.144l88.448 88.448ZM237.056 156.288c-3.712-3.2-7.424-6.272-11.52-8.96-1.536 3.328-2.56 6.912-2.56 10.88 0 1.664.256 3.2.64 4.736 4.352-2.432 8.832-4.608 13.44-6.656ZM156.288 114.176c1.28-2.688 2.816-5.376 4.352-7.936-6.144 1.536-11.904 4.352-16.512 8.704 3.968-.384 8.064-.768 12.16-.768ZM151.04 127.36c-7.04.384-13.952 1.408-20.608 2.944-1.664 6.656-2.56 13.568-3.072 20.608 6.272-1.92 12.8-3.328 19.584-4.096.768-6.656 2.048-13.184 4.096-19.456ZM114.304 156.16c.128-4.096.384-8.192.768-12.288-4.48 4.992-7.552 10.752-9.088 16.896 2.688-1.664 5.504-3.2 8.32-4.608ZM105.344 176.64c1.024 6.4 3.84 12.544 8.32 17.92 1.536-1.28 2.944-2.816 4.608-3.968-1.536-6.656-2.816-13.44-3.456-20.352-3.328 1.92-6.4 4.096-9.472 6.4ZM146.304 159.872c-6.528.896-12.928 2.56-18.944 4.736.384 6.656 1.152 13.184 2.56 19.584a67.944 67.944 0 0 1 18.432-5.248c-1.28-6.144-1.92-12.544-2.048-19.072ZM151.936 191.488c-6.656.768-12.8 2.432-18.56 5.248 2.048 6.144 4.608 12.032 7.552 17.664 5.248-2.688 11.008-4.352 17.28-4.352.768 0 1.664.256 2.432.256-3.456-5.888-6.4-12.16-8.704-18.816ZM147.328 225.408c2.688 4.096 5.76 7.808 8.96 11.52 2.048-4.608 4.352-9.088 6.656-13.44-1.536-.384-3.072-.64-4.736-.64-3.968 0-7.552 1.024-10.88 2.56ZM165.504 191.744c2.176 5.376 5.12 10.368 8.32 15.232a165.505 165.505 0 0 1 8.192-10.112c-5.248-2.432-10.624-4.352-16.512-5.12ZM159.104 158.976c0 6.656.896 13.056 2.304 19.328 7.424.384 14.592 1.792 21.376 4.224-2.56-6.656-3.968-13.824-4.352-21.248-6.272-1.408-12.672-2.304-19.328-2.304ZM159.872 146.176c6.528.128 12.928.768 19.2 2.048.896-6.4 2.56-12.672 5.12-18.432-6.272-1.408-12.928-2.176-19.584-2.56-2.304 6.016-3.84 12.416-4.736 18.944ZM176.512 105.472c-2.176 2.944-4.352 6.016-6.144 9.216 6.912.64 13.696 1.92 20.352 3.584 1.152-1.664 2.56-3.072 3.968-4.736-5.248-4.352-11.52-7.04-18.176-8.064ZM214.528 140.928c-5.632-2.944-11.52-5.504-17.664-7.552-2.688 5.632-4.48 11.904-5.248 18.56 6.656 2.176 12.928 5.12 18.816 8.704 0-.768-.256-1.536-.256-2.432 0-6.272 1.664-12.032 4.352-17.28ZM206.976 173.824c-4.736-3.2-9.856-6.144-15.232-8.32.768 5.888 2.688 11.264 4.992 16.512 3.328-2.944 6.784-5.632 10.24-8.192ZM217.344 181.76c-7.04 4.992-13.696 10.368-19.712 16.512l100.096 100.224.64-.256 9.6-25.856-90.624-90.624Z"/></svg>