<svg xmlns="http://www.w3.org/2000/svg" width="1031" height="224" fill="none"><path fill="#F9CE49" d="M21.87 21.87c29.159-29.16 151.101-29.16 180.261 0 29.159 29.16 29.159 151.101 0 180.261-29.16 29.159-151.102 29.159-180.262 0-29.159-29.16-29.159-151.102 0-180.262Z"/><path fill="#333" d="m156.688 113.512 17.808 57.4c.28 1.008 0 2.072-.672 2.744-.504.56-1.232.84-1.96.84-.28 0-.56 0-.84-.112l-57.4-17.808a2.492 2.492 0 0 1-1.176-.672L46.76 90.272c-8.736-8.736-8.736-22.96 0-31.696l11.872-11.872c8.456-8.456 23.24-8.456 31.696 0l65.688 65.632c.28.336.56.728.672 1.176Z"/><path fill="#FEFBE8" d="m151.256 162.456-33.432-10.36 2.8-11.928 13.048-4.816c.784-.28 1.4-.896 1.68-1.624l4.816-13.048 11.928-2.8 10.416 33.32c-4.928 2.464-8.848 6.384-11.256 11.256Z"/><path fill="#F9CE49" d="m138.544 115.248 6.384-1.512-39.872-39.872a75.93 75.93 0 0 0-5.208 2.688l38.696 38.696ZM103.712 68.376c-1.624-1.4-3.248-2.744-5.04-3.92-.672 1.456-1.12 3.024-1.12 4.76 0 .728.112 1.4.28 2.072 1.904-1.064 3.864-2.016 5.88-2.912ZM68.376 49.952c.56-1.176 1.232-2.352 1.904-3.472-2.688.672-5.208 1.904-7.224 3.808 1.736-.168 3.528-.336 5.32-.336ZM66.08 55.72c-3.08.168-6.104.616-9.016 1.288-.728 2.912-1.12 5.936-1.344 9.016 2.744-.84 5.6-1.456 8.568-1.792.336-2.912.896-5.768 1.792-8.512ZM50.008 68.32c.056-1.792.168-3.584.336-5.376-1.96 2.184-3.304 4.704-3.976 7.392a46.154 46.154 0 0 1 3.64-2.016ZM46.088 77.28c.448 2.8 1.68 5.488 3.64 7.84.672-.56 1.288-1.232 2.016-1.736-.672-2.912-1.232-5.88-1.512-8.904-1.456.84-2.8 1.792-4.144 2.8ZM64.008 69.944c-2.856.392-5.656 1.12-8.288 2.072.168 2.912.504 5.768 1.12 8.568a29.726 29.726 0 0 1 8.064-2.296c-.56-2.688-.84-5.488-.896-8.344ZM66.472 83.776c-2.912.336-5.6 1.064-8.12 2.296a52.583 52.583 0 0 0 3.304 7.728c2.296-1.176 4.816-1.904 7.56-1.904.336 0 .728.112 1.064.112a45.928 45.928 0 0 1-3.808-8.232ZM64.456 98.616c1.176 1.792 2.52 3.416 3.92 5.04.896-2.016 1.904-3.976 2.912-5.88-.672-.168-1.344-.28-2.072-.28-1.736 0-3.304.448-4.76 1.12ZM72.408 83.888c.952 2.352 2.24 4.536 3.64 6.664a72.408 72.408 0 0 1 3.584-4.424c-2.296-1.064-4.648-1.904-7.224-2.24ZM69.608 69.552c0 2.912.392 5.712 1.008 8.456 3.248.168 6.384.784 9.352 1.848-1.12-2.912-1.736-6.048-1.904-9.296-2.744-.616-5.544-1.008-8.456-1.008ZM69.944 63.952c2.856.056 5.656.336 8.4.896.392-2.8 1.12-5.544 2.24-8.064-2.744-.616-5.656-.952-8.568-1.12-1.008 2.632-1.68 5.432-2.072 8.288ZM77.224 46.144c-.952 1.288-1.904 2.632-2.688 4.032 3.024.28 5.992.84 8.904 1.568.504-.728 1.12-1.344 1.736-2.072-2.296-1.904-5.04-3.08-7.952-3.528ZM93.856 61.656a52.583 52.583 0 0 0-7.728-3.304c-1.176 2.464-1.96 5.208-2.296 8.12a39.297 39.297 0 0 1 8.232 3.808c0-.336-.112-.672-.112-1.064 0-2.744.728-5.264 1.904-7.56ZM90.552 76.048c-2.072-1.4-4.312-2.688-6.664-3.64.336 2.576 1.176 4.928 2.184 7.224 1.456-1.288 2.968-2.464 4.48-3.584ZM95.088 79.52c-3.08 2.184-5.992 4.536-8.624 7.224l43.792 43.848.28-.112 4.2-11.312L95.088 79.52Z"/><path fill="#fff" d="M356.901 85.957c-.478-4.812-2.526-8.55-6.145-11.215-3.62-2.665-8.532-3.998-14.736-3.998-4.216 0-7.776.597-10.679 1.79-2.903 1.153-5.131 2.764-6.682 4.832-1.511 2.069-2.267 4.415-2.267 7.04-.079 2.188.378 4.097 1.372 5.727 1.034 1.631 2.446 3.043 4.236 4.236 1.79 1.154 3.858 2.168 6.205 3.043a64.242 64.242 0 0 0 7.517 2.148l10.977 2.625c5.329 1.193 10.221 2.784 14.676 4.772 4.455 1.989 8.313 4.435 11.574 7.338 3.261 2.904 5.787 6.324 7.577 10.262 1.829 3.937 2.764 8.452 2.804 13.542-.04 7.478-1.949 13.961-5.728 19.449-3.738 5.449-9.147 9.685-16.227 12.708-7.04 2.983-15.531 4.474-25.474 4.474-9.864 0-18.455-1.511-25.773-4.534-7.279-3.023-12.966-7.497-17.063-13.423-4.056-5.966-6.184-13.344-6.383-22.134h24.997c.278 4.097 1.452 7.517 3.52 10.262 2.108 2.704 4.912 4.752 8.412 6.144 3.54 1.353 7.537 2.029 11.991 2.029 4.375 0 8.174-.637 11.395-1.909 3.262-1.273 5.787-3.043 7.577-5.31 1.79-2.267 2.685-4.872 2.685-7.815 0-2.745-.816-5.051-2.446-6.921-1.591-1.869-3.938-3.46-7.04-4.772-3.063-1.313-6.821-2.506-11.276-3.58l-13.304-3.341c-10.301-2.506-18.434-6.423-24.4-11.753-5.966-5.329-8.929-12.508-8.89-21.537-.039-7.397 1.929-13.86 5.907-19.389 4.017-5.528 9.525-9.844 16.525-12.946 7-3.102 14.955-4.653 23.864-4.653 9.068 0 16.983 1.55 23.744 4.653 6.801 3.102 12.091 7.418 15.87 12.946 3.778 5.529 5.727 11.932 5.846 19.21h-24.758Zm92.068-4.593v19.091h-55.184V81.364h55.184Zm-42.656-21.955h25.415v85.432c0 2.346.358 4.176 1.074 5.489.716 1.272 1.71 2.167 2.983 2.684 1.312.517 2.824.776 4.534.776 1.193 0 2.386-.1 3.579-.299 1.194-.238 2.108-.417 2.745-.536l3.997 18.911c-1.273.398-3.063.856-5.369 1.373-2.307.556-5.111.895-8.412 1.014-6.125.238-11.495-.577-16.108-2.446-4.574-1.87-8.134-4.773-10.679-8.71-2.546-3.938-3.799-8.91-3.759-14.915V59.409Zm99.989 115.381c-9.426 0-17.54-1.909-24.341-5.728-6.761-3.857-11.972-9.306-15.631-16.346-3.659-7.08-5.488-15.452-5.488-25.117 0-9.426 1.829-17.698 5.488-24.818 3.659-7.12 8.81-12.667 15.452-16.645 6.682-3.977 14.517-5.966 23.506-5.966 6.045 0 11.673.975 16.883 2.924 5.25 1.909 9.824 4.792 13.722 8.65 3.937 3.858 7 8.711 9.187 14.557 2.188 5.807 3.282 12.608 3.282 20.404v6.98h-77.378v-15.75h53.454c0-3.659-.795-6.901-2.386-9.725a17.092 17.092 0 0 0-6.622-6.622c-2.784-1.63-6.026-2.446-9.725-2.446-3.858 0-7.278.895-10.261 2.685a18.828 18.828 0 0 0-6.921 7.099c-1.67 2.943-2.525 6.225-2.565 9.844v14.974c0 4.534.835 8.452 2.506 11.753 1.71 3.301 4.116 5.847 7.219 7.637 3.102 1.789 6.781 2.684 11.036 2.684 2.824 0 5.41-.398 7.756-1.193 2.347-.795 4.355-1.989 6.026-3.58 1.67-1.59 2.943-3.539 3.818-5.846l23.506 1.551c-1.194 5.648-3.64 10.58-7.338 14.795-3.66 4.177-8.393 7.438-14.199 9.785-5.767 2.306-12.429 3.46-19.986 3.46Zm84.06-54.767V173h-25.415V81.364h24.221V97.53h1.074c2.029-5.33 5.429-9.545 10.202-12.648 4.773-3.141 10.56-4.713 17.361-4.713 6.363 0 11.912 1.392 16.645 4.177 4.733 2.784 8.412 6.76 11.037 11.931 2.625 5.131 3.937 11.256 3.937 18.375V173h-25.415v-53.813c.04-5.607-1.392-9.982-4.295-13.125-2.904-3.181-6.901-4.772-11.992-4.772-3.42 0-6.443.736-9.068 2.207-2.585 1.472-4.613 3.619-6.085 6.443-1.432 2.784-2.168 6.145-2.207 10.083Zm120.496 54.767c-9.267 0-17.281-1.969-24.043-5.906-6.721-3.978-11.912-9.506-15.571-16.586-3.659-7.119-5.488-15.372-5.488-24.758 0-9.466 1.829-17.739 5.488-24.818 3.659-7.12 8.85-12.648 15.571-16.586 6.762-3.977 14.776-5.966 24.043-5.966s17.261 1.99 23.983 5.966c6.761 3.938 11.972 9.466 15.631 16.586 3.659 7.079 5.488 15.352 5.488 24.818 0 9.386-1.829 17.639-5.488 24.758-3.659 7.08-8.87 12.608-15.631 16.586-6.722 3.937-14.716 5.906-23.983 5.906Zm.119-19.688c4.216 0 7.736-1.193 10.56-3.579 2.824-2.426 4.952-5.728 6.383-9.904 1.472-4.176 2.208-8.929 2.208-14.258 0-5.33-.736-10.083-2.208-14.259-1.431-4.176-3.559-7.477-6.383-9.903s-6.344-3.64-10.56-3.64c-4.255 0-7.835 1.214-10.738 3.64-2.864 2.426-5.032 5.727-6.503 9.903-1.432 4.176-2.148 8.929-2.148 14.259 0 5.329.716 10.082 2.148 14.258 1.471 4.176 3.639 7.478 6.503 9.904 2.903 2.386 6.483 3.579 10.738 3.579Zm76.364 19.449c-3.938 0-7.318-1.392-10.142-4.176-2.784-2.824-4.176-6.205-4.176-10.142 0-3.898 1.392-7.239 4.176-10.023 2.824-2.784 6.204-4.176 10.142-4.176 3.818 0 7.159 1.392 10.023 4.176 2.863 2.784 4.295 6.125 4.295 10.023 0 2.625-.676 5.031-2.028 7.219a15.431 15.431 0 0 1-5.191 5.19c-2.147 1.273-4.514 1.909-7.099 1.909Zm84.462-93.187v19.091h-56.556V81.364h56.556ZM828.193 173V74.742c0-6.643 1.292-12.151 3.877-16.526 2.625-4.375 6.205-7.656 10.739-9.844 4.534-2.187 9.685-3.281 15.452-3.281 3.897 0 7.457.298 10.679.895 3.261.596 5.687 1.133 7.278 1.61l-4.534 19.092c-.994-.319-2.227-.617-3.699-.895a23.078 23.078 0 0 0-4.415-.418c-3.738 0-6.343.875-7.815 2.625-1.472 1.71-2.207 4.117-2.207 7.219V173h-25.355Zm59.137 0V81.364h24.221V97.53h1.074c1.909-5.37 5.091-9.605 9.546-12.707 4.454-3.102 9.784-4.654 15.988-4.654 6.284 0 11.634 1.572 16.048 4.713 4.415 3.103 7.358 7.319 8.83 12.648h.955c1.869-5.25 5.25-9.446 10.142-12.588 4.931-3.182 10.758-4.773 17.48-4.773 8.546 0 15.496 2.725 20.816 8.174 5.37 5.409 8.06 13.085 8.06 23.028V173h-25.356v-56.616c0-5.091-1.353-8.91-4.057-11.455-2.705-2.545-6.085-3.818-10.142-3.818-4.614 0-8.213 1.471-10.799 4.415-2.585 2.903-3.877 6.741-3.877 11.514V173h-24.64v-57.153c0-4.495-1.292-8.074-3.877-10.739-2.546-2.665-5.907-3.997-10.083-3.997-2.824 0-5.369.716-7.636 2.148-2.227 1.392-3.997 3.36-5.31 5.906-1.312 2.505-1.969 5.449-1.969 8.829V173H887.33Z"/></svg>